<?xml version="1.0" encoding="utf-8"?>
<!-- Generator: Adobe Illustrator 15.1.0, SVG Export Plug-In  -->
<!DOCTYPE svg PUBLIC "-//W3C//DTD SVG 1.1//EN" "http://www.w3.org/Graphics/SVG/1.1/DTD/svg11.dtd" [
	<!ENTITY ns_flows "http://ns.adobe.com/Flows/1.0/">
]>
<svg version="1.1"
	 xmlns="http://www.w3.org/2000/svg" xmlns:xlink="http://www.w3.org/1999/xlink" xmlns:a="http://ns.adobe.com/AdobeSVGViewerExtensions/3.0/"
	 x="0px" y="0px" width="504px" height="56px" viewBox="-0.27 -0.499 504 56"
	 overflow="visible" enable-background="new -0.27 -0.499 504 56" xml:space="preserve">
<defs>
</defs>
<path fill="#243A79" stroke="#223A83" d="M5.62,29.701c-0.32,0-1.76,0.16-2.08,0.16c-0.4,0-0.64-0.32-1.36-1.28
	c-0.48-0.64-0.88-0.72-1.44-0.96c-0.16-0.08-0.24-0.16-0.24-0.32c0-0.24,0.16-0.32,0.4-0.32h28V11.46H5.62
	c-0.32,0-1.76,0.16-2.08,0.16c-0.48,0-0.56-0.08-1.2-1.04c-0.4-0.64-0.48-0.64-1.68-1.2C0.58,9.38,0.5,9.3,0.5,9.14
	c0-0.24,0.16-0.32,0.4-0.32h23.12c1.92,0,3.52-0.96,4.48-1.84c1.84-1.76,2.88-2.72,5.12-2.72c0.48,0,5.6,0,5.6,6.64v34.481
	c0,6.72-5.04,6.72-5.6,6.72c-2.24,0-3.36-1.04-5.12-2.72c-0.72-0.64-2.48-1.76-4.48-1.76H5.62c-0.32,0-1.76,0.16-2.08,0.16
	c-0.4,0-0.48-0.08-1.28-1.2c-0.4-0.56-0.48-0.56-1.52-1.04c-0.16-0.08-0.24-0.16-0.24-0.32c0-0.32,0.24-0.32,0.4-0.32h28V29.701
	H5.62z"/>
<path fill="#243A79" stroke="#223A83" d="M84.82,15.78c-0.4,0-2,0.24-2.32,0.24c-0.4,0-1.36-1.6-1.6-1.84
	c-0.24-0.16-1.28-0.56-1.28-0.72c0-0.24,0.16-0.4,0.4-0.4h23.601c1.92,0,3.36-0.64,4.72-2c1.52-1.44,2.64-2.48,4.96-2.48
	c0.48,0,5.6,0,5.6,6.72v27.121c0,6.72-5.12,6.72-5.68,6.72c-2.16,0-3.2-0.96-4.88-2.48c-1.28-1.2-2.8-2-4.72-2H84.98
	c-0.4,0-2.16,0.16-2.48,0.16c-0.4,0-1.52-1.76-1.84-2c-0.16-0.08-1.04-0.4-1.04-0.56c0-0.16,0.16-0.32,0.4-0.32h28.561V15.78H84.82z
	"/>
<path fill="#243A79" stroke="#223A83" d="M166.581,31.621c-5.92,0-9.92-1.84-9.92-3.041c0-0.24,0.16-0.32,0.24-0.32
	s0.319,0.16,0.479,0.24c0.48,0.4,1.44,0.48,1.92,0.48c4.881,0,13.681-3.52,20.001-11.601c5.12-6.48,6.8-13.28,6.8-14.72
	c0-0.96-0.399-1.28-0.64-1.52c-0.16-0.08-0.24-0.24-0.24-0.32c0-0.16,0.16-0.32,0.32-0.32s8.4,3.44,8.4,8.561
	C193.942,13.78,185.941,31.621,166.581,31.621z M177.941,39.541c0-5.84-0.08-6.48-2.16-6.8c-0.24-0.08-0.319-0.24-0.319-0.32
	c0-0.4,0.56-0.4,1.68-0.4c9.601,0,10.32,2.8,10.32,6.72v10.64c0,2.72-2.24,4.72-4.721,4.72c-3.04,0-4.8-2.56-4.8-4.72V39.541z"/>
<path fill="#243A79" stroke="#223A83" d="M236.041,38.917c-3.172,0-5.356-3.224-5.356-7.645c0-8.892,8.477-16.12,16.85-16.12
	c7.436,0,14.092,5.408,14.092,13.624c0,7.645-5.876,13.521-12.844,13.521c-2.965,0-3.381-1.664-3.381-2.028
	c0-0.156,0.156-0.208,0.208-0.208c0.104,0,0.156,0.052,0.261,0.156c0.207,0.312,0.416,0.364,0.676,0.364
	c1.352,0,9.412-3.38,9.412-11.752c0-5.824-4.108-10.504-9.725-10.504c-6.188,0-12.844,4.576-12.844,10.973
	c0,1.924,0.884,3.692,2.443,3.692c3.692,0,8.112-9.672,8.112-10.4c0-0.156,0-0.416-0.364-0.728
	c-0.155-0.052-0.155-0.104-0.155-0.156c0-0.052,0.052-0.208,0.155-0.208c0.364,0,4.213,2.028,4.213,5.097
	C247.793,29.037,241.657,38.917,236.041,38.917z"/>
<path fill="#243A79" stroke="#223A83" d="M299.941,28.501c-2.88,0-6.4-3.68-6.4-8.16c0-5.041,4.08-9.76,4.32-9.76
	c0.16,0,0.32,0.08,0.32,0.24c0,0.32-0.32,1.68-0.32,1.92c0,2.48,1.84,4.56,3.12,5.92c2.8,2.96,3.28,3.44,3.28,5.76
	C304.261,26.421,302.341,28.501,299.941,28.501z M312.101,50.021c-4.08,0-6.72-1.68-6.72-2.4c0-0.16,0-0.32,0.239-0.32l0.32,0.16
	c0.24,0.16,0.88,0.4,1.76,0.4c4.561,0,13.44-6.24,19.281-19.681c2.96-6.8,4.239-13.44,4.239-15.28c0-0.88-0.159-2-0.96-2.48
	c-0.239-0.08-0.319-0.16-0.319-0.32c0-0.16,0.08-0.32,0.239-0.32c0.4,0,2.4,0.48,4.16,1.36c3.761,1.76,4.16,3.76,4.16,5.76
	C338.501,34.341,325.862,50.021,312.101,50.021z"/>
<path fill="#243A79" stroke="#223A83" d="M382.5,30.821c-0.64,0-3.52,0.48-4.159,0.48c-0.801,0-1.04-0.48-1.44-1.84
	c-0.72-2.72-1.28-2.8-2.561-3.2c-0.159,0-0.239-0.16-0.239-0.32c0-0.24,0.159-0.32,0.399-0.32h29.921c2.24,0,3.36-0.24,4.4-1.28
	c1.439-1.36,2.399-2.32,4.32-2.32c2.88,0,5.04,2.72,5.04,5.04c0,2.08-1.921,3.76-5.521,3.76H382.5z"/>
<path fill="#243A79" stroke="#223A83" d="M464.421,15.86c-0.4,0-1.921,0.24-2.24,0.24c-0.4,0-1.44-1.68-1.681-1.92
	c-0.159-0.08-1.199-0.48-1.199-0.64c0-0.24,0.319-0.4,0.56-0.4h12.641c2.96,0,4.16-1.12,5.2-2.16c1.279-1.28,2.64-2.64,5.52-2.64
	c6.16,0,6.16,5.6,6.16,7.84c0,17.84-13.2,32.161-31.12,32.161c-5.44,0-8.16-1.52-8.16-2.4c0-0.16,0.079-0.24,0.159-0.24
	c0.24,0,1.28,0.32,1.44,0.32c5.44,0,26.001-8.16,26.48-30.161H464.421z M498.341,52.341c-2.72,0-3.6-1.44-6.08-5.52
	c-1.92-3.04-4-6.4-6.96-6.8c-0.479-0.08-0.88-0.16-0.88-0.4c0-0.48,2.72-0.96,4.641-0.96c6.96,0,13.28,4.88,13.28,9.84
	C502.342,51.861,499.302,52.341,498.341,52.341z"/>
</svg>
